<svg width="37" height="27" viewBox="0 0 37 27" fill="none" xmlns="http://www.w3.org/2000/svg">
<path d="M25.7199 1H10.707C10.1547 1 9.70703 1.44772 9.70703 2V24.3594C9.70703 24.9117 10.1547 25.3594 10.707 25.3594H25.7199C26.2722 25.3594 26.7199 24.9117 26.7199 24.3594V2C26.7199 1.44772 26.2722 1 25.7199 1Z" stroke="#E8593F" stroke-width="1.5" stroke-linecap="round"/>
<path d="M21.3308 18.0129C21.3308 19.7341 19.9355 21.1295 18.2142 21.1295C16.493 21.1295 15.0977 19.7341 15.0977 18.0129C15.0977 16.2917 16.493 14.8963 18.2142 14.8963C19.9355 14.8963 21.3308 16.2917 21.3308 18.0129Z" stroke="#E8593F" stroke-width="1.5"/>
<circle cx="18.2135" cy="8.73315" r="1.56994" stroke="#E8593F" stroke-width="1.5"/>
<path d="M3.90615 6.02655C-0.345747 9.89312 0.427544 18.3996 3.90615 21.8795" stroke="#E8593F" stroke-width="1.5" stroke-linecap="round"/>
<path d="M6.61401 9.50644C4.35119 11.5812 4.76273 16.1456 6.61401 18.0129" stroke="#E8593F" stroke-width="1.5" stroke-linecap="round"/>
<path d="M33.0938 21.8795C37.3457 18.0129 36.5725 9.50647 33.0938 6.02655" stroke="#E8593F" stroke-width="1.5" stroke-linecap="round"/>
<path d="M30.386 18.3996C32.6488 16.3248 32.2373 11.7604 30.386 9.89312" stroke="#E8593F" stroke-width="1.5" stroke-linecap="round"/>
</svg>
