<svg width="33" height="31" viewBox="0 0 33 31" fill="none" xmlns="http://www.w3.org/2000/svg">
<path d="M4.75 15V26C4.75 28.2091 6.54086 30 8.75 30H24.2727C26.4819 30 28.2727 28.2091 28.2727 26V15" stroke="#E8593F" stroke-width="1.5" stroke-linecap="round"/>
<path d="M1 12.9545L14.0769 2.15187C15.5811 0.909275 17.7623 0.93317 19.2389 2.20842L31.6818 12.9545" stroke="#E8593F" stroke-width="1.5" stroke-linecap="round"/>
<path d="M8.84082 14.6591L9.59121 14.2214C11.6847 13.0002 14.2425 12.8777 16.4431 13.8934L18.2662 14.7348C20.3328 15.6886 22.7843 15.0922 24.1817 13.2955V13.2955" stroke="#E8593F" stroke-width="1.5" stroke-linecap="round"/>
<path d="M8.84082 19.4318L9.59121 18.9941C11.6847 17.7729 14.2425 17.6504 16.4431 18.6661L18.2662 19.5075C20.3328 20.4613 22.7843 19.8649 24.1817 18.0682V18.0682" stroke="#E8593F" stroke-width="1.5" stroke-linecap="round"/>
<path d="M8.84082 24.2045L9.59121 23.7668C11.6847 22.5456 14.2425 22.4232 16.4431 23.4388L18.2662 24.2802C20.3328 25.2341 22.7843 24.6376 24.1817 22.8409V22.8409" stroke="#E8593F" stroke-width="1.5" stroke-linecap="round"/>
</svg>
