<svg width="36" height="38" viewBox="0 0 36 38" fill="none" xmlns="http://www.w3.org/2000/svg">
<circle cx="27.5388" cy="13.6923" r="2.32692" stroke="#E8593F" stroke-width="1.5"/>
<path d="M11 1.38461L24.8462 15.2308" stroke="#E8593F" stroke-width="1.5" stroke-linecap="round"/>
<path d="M23.3076 1L31.7692 9.46154" stroke="#E8593F" stroke-width="1.5" stroke-linecap="round"/>
<path d="M24.4613 13.3077L26.2902 10.8692C27.2894 9.53692 28.96 8.88986 30.5958 9.20146V9.20146C33.357 9.72739 34.9071 12.6892 33.7656 15.2577L33.3177 16.2654C33.0567 16.8527 32.6898 17.3869 32.2354 17.8413L12.9229 37.1539" stroke="#E8593F" stroke-width="1.5" stroke-linecap="round"/>
<path d="M14.4617 4.84616C13.8463 5.15385 5.48733 13.6923 1.38477 17.9231" stroke="#E8593F" stroke-width="1.5" stroke-linecap="round"/>
<path d="M17.5385 9.07693C16.9231 9.38463 5.10256 21.3846 1 25.6154" stroke="#E8593F" stroke-width="1.5" stroke-linecap="round"/>
<path d="M21.3848 12.9231C20.7694 13.2308 5.48733 28.6923 1.38477 32.9231" stroke="#E8593F" stroke-width="1.5" stroke-linecap="round"/>
<path d="M25.9997 16C25.3843 16.3077 9.33303 32.5385 5.23047 36.7692" stroke="#E8593F" stroke-width="1.5" stroke-linecap="round"/>
<path d="M11.3848 8.30768L26.3848 23.3077" stroke="#E8593F" stroke-width="1.5" stroke-linecap="round"/>
<path d="M7.53809 12.1538L22.5381 27.1538" stroke="#E8593F" stroke-width="1.5" stroke-linecap="round"/>
<path d="M3.69238 16L18.6924 31" stroke="#E8593F" stroke-width="1.5" stroke-linecap="round"/>
<path d="M3.30762 23.3077L14.8461 34.8461" stroke="#E8593F" stroke-width="1.5" stroke-linecap="round"/>
<path d="M3.69238 31.3846L6.76931 34.4615" stroke="#E8593F" stroke-width="1.5" stroke-linecap="round"/>
</svg>
