<svg width="40" height="38" viewBox="0 0 40 38" fill="none" xmlns="http://www.w3.org/2000/svg">
<path d="M29.167 15.5833L37.0173 1.84529C37.2942 1.36066 37.886 1.15427 38.4043 1.36157V1.36157C39.03 1.61188 39.2941 2.35457 38.9668 2.94374L31.2503 16.8333" stroke="#E8593F" stroke-width="1.5" stroke-linecap="round"/>
<path d="M25.417 18.0833L25.709 17.5723C26.4802 16.2226 28.1715 15.7106 29.5618 16.4057V16.4057C31.2661 17.2579 31.7158 19.4848 30.4757 20.9315L30.417 21" stroke="#E8593F" stroke-width="1.5" stroke-linecap="round"/>
<path d="M22.103 20.5636L14.6267 28.04C14.1846 28.4821 14.2826 29.2233 14.8245 29.5353L26.3637 36.1791C26.9257 36.5027 27.64 36.1856 27.7771 35.5518L30.0777 24.9116C30.5248 22.8434 29.5453 20.7297 27.6783 19.734C25.8398 18.7535 23.5764 19.0903 22.103 20.5636Z" stroke="#E8593F" stroke-width="1.5" stroke-linecap="round"/>
<path d="M21.6663 25.1667L17.083 30.1667" stroke="#E8593F" stroke-width="1.5" stroke-linecap="round"/>
<path d="M22.4997 30.1667L20.833 32.6667" stroke="#E8593F" stroke-width="1.5" stroke-linecap="round"/>
<path d="M26.25 29.3333L25 34.75" stroke="#E8593F" stroke-width="1.5" stroke-linecap="round"/>
<circle cx="16.25" cy="15.1667" r="3" stroke="#E8593F" stroke-width="1.5"/>
<circle cx="37.5" cy="26.8333" r="1.75" stroke="#E8593F" stroke-width="1.5"/>
<circle cx="6.25" cy="23.9167" r="5.5" stroke="#E8593F" stroke-width="1.5"/>
</svg>
