<svg width="170" height="170" viewBox="0 0 170 170" fill="none" xmlns="http://www.w3.org/2000/svg">
<circle cx="85" cy="85" r="85" fill="white" fill-opacity="0.14"/>
<g filter="url(#filter0_b_82_424)">
<circle cx="85.5" cy="85.5" r="59.5" fill="#242424"/>
</g>
<path d="M103.174 74.52V72.69L104.394 70.86L106.427 70.0467H108.054L109.68 71.2667L110.9 72.69V74.52L110.087 76.1467H111.714L112.527 76.96L112.934 77.7733V79.4L112.527 80.62" stroke="white" stroke-width="2" stroke-linecap="round"/>
<path d="M97.0742 70.4533L97.8876 68.42L99.5142 66.7933H101.548H103.174L104.801 68.42L105.614 69.64" stroke="white" stroke-width="2" stroke-linecap="round"/>
<path d="M92.6 75.74L92.1934 73.7067L93.4134 71.6733L95.04 70.86L97.48 71.2667" stroke="white" stroke-width="2" stroke-linecap="round"/>
<path d="M83.2461 75.74L83.6528 73.3L85.6861 71.2667L88.1261 70.4533L90.5661 70.86L92.1928 72.08" stroke="white" stroke-width="2" stroke-linecap="round"/>
<path d="M79.5859 86.3133C79.5859 86.6387 82.0259 99.4622 83.2459 105.833" stroke="white" stroke-width="2" stroke-linecap="round"/>
<path d="M112.121 87.1266C111.795 87.452 108.732 105.698 107.241 114.78H89.7539" stroke="white" stroke-width="2" stroke-linecap="round"/>
<path d="M79.9922 85.9066C80.8483 92.9723 83.4651 95.4597 90.1589 98.5133" stroke="white" stroke-width="2" stroke-linecap="round"/>
<path d="M112.121 85.9066C111.299 92.7444 108.787 95.1516 102.361 98.1066" stroke="white" stroke-width="2" stroke-linecap="round"/>
<path d="M61.6922 111.527L60.8789 115.593" stroke="white" stroke-width="2" stroke-linecap="round"/>
<path d="M65.3543 111.12L64.541 115.187M68.6077 111.527V115.187" stroke="white" stroke-width="2" stroke-linecap="round"/>
<path d="M71.8613 111.527V115.593" stroke="white" stroke-width="2" stroke-linecap="round"/>
<path d="M75.1133 111.12L75.5199 115.593" stroke="white" stroke-width="2" stroke-linecap="round"/>
<path d="M78.3672 111.12L79.1805 116" stroke="white" stroke-width="2" stroke-linecap="round"/>
<path d="M81.6211 111.933L82.4344 115.187" stroke="white" stroke-width="2" stroke-linecap="round"/>
<path d="M84.873 111.527C84.873 111.852 85.6864 114.373 86.093 115.593" stroke="white" stroke-width="2" stroke-linecap="round"/>
<path d="M114.967 81.0267H76.7402V85.9067H114.967V81.0267Z" stroke="white" stroke-width="2" stroke-linecap="round"/>
<path d="M71.0469 103.8V55H74.3002V103.8" stroke="white" stroke-width="2" stroke-linecap="round"/>
<path d="M86.9067 108.68H58.8467L56 116H89.7533L86.9067 108.68Z" stroke="white" stroke-width="2" stroke-linecap="round"/>
<path d="M58.8457 108.68L59.659 106.24H67.7924L69.8257 103.8H75.519L77.959 106.24L86.499 106.647L86.9057 108.68" stroke="white" stroke-width="2" stroke-linecap="round"/>
<rect x="90.3457" y="96.6667" width="11.0133" height="3.69333" stroke="white" stroke-width="2"/>
<circle cx="92.1924" cy="65.1667" r="1.84667" stroke="white" stroke-width="2"/>
<circle cx="110.087" cy="63.54" r="3.47333" stroke="white" stroke-width="2"/>
<path d="M77.959 80.62L79.179 77.3667L82.839 76.1467L85.6857 77.7733" stroke="white" stroke-width="2" stroke-linecap="round"/>
<defs>
<filter id="filter0_b_82_424" x="-24" y="-24" width="219" height="219" filterUnits="userSpaceOnUse" color-interpolation-filters="sRGB">
<feFlood flood-opacity="0" result="BackgroundImageFix"/>
<feGaussianBlur in="BackgroundImageFix" stdDeviation="25"/>
<feComposite in2="SourceAlpha" operator="in" result="effect1_backgroundBlur_82_424"/>
<feBlend mode="normal" in="SourceGraphic" in2="effect1_backgroundBlur_82_424" result="shape"/>
</filter>
</defs>
</svg>
