<svg width="16" height="16" viewBox="0 0 16 16" fill="none" xmlns="http://www.w3.org/2000/svg">
<path fill-rule="evenodd" clip-rule="evenodd" d="M7.99982 9.414L13.6568 15.071C13.8454 15.2532 14.098 15.3539 14.3602 15.3517C14.6224 15.3494 14.8732 15.2442 15.0586 15.0588C15.2441 14.8734 15.3492 14.6226 15.3515 14.3604C15.3538 14.0982 15.253 13.8456 15.0708 13.657L9.41382 8L15.0708 2.343C15.253 2.15439 15.3538 1.90179 15.3515 1.6396C15.3492 1.3774 15.2441 1.12659 15.0586 0.941178C14.8732 0.75577 14.6224 0.650601 14.3602 0.648323C14.098 0.646044 13.8454 0.746839 13.6568 0.928997L7.99982 6.586L2.34282 0.928997C2.15337 0.751342 1.90224 0.654362 1.64255 0.658579C1.38287 0.662796 1.13502 0.767878 0.951433 0.951591C0.76785 1.1353 0.662943 1.38323 0.65891 1.64292C0.654877 1.9026 0.752034 2.15367 0.929823 2.343L6.58582 8L0.928823 13.657C0.833313 13.7492 0.757131 13.8596 0.704722 13.9816C0.652313 14.1036 0.624727 14.2348 0.623573 14.3676C0.622419 14.5004 0.647721 14.6321 0.698001 14.755C0.748282 14.8778 0.822535 14.9895 0.916428 15.0834C1.01032 15.1773 1.12197 15.2515 1.24487 15.3018C1.36777 15.3521 1.49944 15.3774 1.63222 15.3762C1.765 15.3751 1.89622 15.3475 2.01823 15.2951C2.14023 15.2427 2.25058 15.1665 2.34282 15.071L7.99982 9.414Z" fill="white"/>
</svg>
