<svg width="170" height="170" viewBox="0 0 170 170" fill="none" xmlns="http://www.w3.org/2000/svg">
<circle cx="85" cy="85" r="85" fill="white" fill-opacity="0.14"/>
<g filter="url(#filter0_b_82_549)">
<circle cx="85.5" cy="85.5" r="59.5" fill="#242424"/>
</g>
<path d="M113 85.5084L76.5 106.008V102.008L112 82.5084L113 85.5084Z" stroke="white" stroke-width="2" stroke-linecap="round"/>
<path d="M60 93.5084C65.3333 96.3418 76.1 102.108 76.5 102.508V106.008L60 97.0084V93.5084Z" stroke="white" stroke-width="2" stroke-linecap="round"/>
<path d="M60.5 93.5085C72.3333 86.5085 96.1 72.6085 96.5 73.0085C96.9 73.4085 107 78.8418 112 81.5084L113 84.5084V85.5084" stroke="white" stroke-width="2" stroke-linecap="round"/>
<path d="M111 75.5084L74.5 96.0084V92.0084L110 72.5084L111 75.5084Z" stroke="white" stroke-width="2" stroke-linecap="round"/>
<path d="M58 83.5084C63.3333 86.3418 74.1 92.1084 74.5 92.5084V96.0084L58 87.0084V83.5084Z" stroke="white" stroke-width="2" stroke-linecap="round"/>
<path d="M58.5 83.5085C70.3333 76.5085 94.1 62.6085 94.5 63.0085C94.9 63.4085 105 68.8418 110 71.5084L111 74.5084V75.5084" stroke="white" stroke-width="2" stroke-linecap="round"/>
<defs>
<filter id="filter0_b_82_549" x="-24" y="-24" width="219" height="219" filterUnits="userSpaceOnUse" color-interpolation-filters="sRGB">
<feFlood flood-opacity="0" result="BackgroundImageFix"/>
<feGaussianBlur in="BackgroundImageFix" stdDeviation="25"/>
<feComposite in2="SourceAlpha" operator="in" result="effect1_backgroundBlur_82_549"/>
<feBlend mode="normal" in="SourceGraphic" in2="effect1_backgroundBlur_82_549" result="shape"/>
</filter>
</defs>
</svg>
