<svg width="170" height="170" viewBox="0 0 170 170" fill="none" xmlns="http://www.w3.org/2000/svg">
<circle cx="85" cy="85" r="85" fill="white" fill-opacity="0.14"/>
<g filter="url(#filter0_b_82_619)">
<circle cx="85.5" cy="85.5" r="59.5" fill="#242424"/>
</g>
<path d="M79 95.5V56H67.5V95.5" stroke="white" stroke-width="2.5" stroke-linecap="round"/>
<path d="M67.5 95.5L63.525 101.486L63 109.595L69.3 115H77.7L83.475 109.595L84 101.486L79 95.5" stroke="white" stroke-width="2.5" stroke-linecap="round"/>
<path d="M73.5 74V101.5" stroke="white" stroke-width="2.5" stroke-linecap="round"/>
<circle cx="73.5" cy="105.5" r="3.25" stroke="white" stroke-width="2.5"/>
<path d="M86.7343 68.5545C89.1446 67.9087 91.6699 67.8176 94.1205 68.288C96.571 68.7584 98.8831 69.7781 100.883 71.2704C102.883 72.7628 104.518 74.689 105.667 76.9044C106.815 79.1197 107.447 81.5665 107.514 84.0609C107.58 86.5553 107.081 89.0325 106.053 91.3062C105.025 93.5799 103.495 95.591 101.578 97.1884C99.661 98.7858 97.4069 99.928 94.9851 100.529C92.5633 101.13 90.0367 101.174 87.5953 100.659" stroke="white" stroke-width="2.5" stroke-linecap="round"/>
<path d="M91 56V62" stroke="white" stroke-width="2.5" stroke-linecap="round"/>
<path d="M106.5 69.5L112 64" stroke="white" stroke-width="2.5" stroke-linecap="round"/>
<path d="M113 84.8891H120.778" stroke="white" stroke-width="2.5" stroke-linecap="round"/>
<path d="M107 100L112.5 105.5" stroke="white" stroke-width="2.5" stroke-linecap="round"/>
<path d="M90.8883 107V114.778" stroke="white" stroke-width="2.5" stroke-linecap="round"/>
<defs>
<filter id="filter0_b_82_619" x="-24" y="-24" width="219" height="219" filterUnits="userSpaceOnUse" color-interpolation-filters="sRGB">
<feFlood flood-opacity="0" result="BackgroundImageFix"/>
<feGaussianBlur in="BackgroundImageFix" stdDeviation="25"/>
<feComposite in2="SourceAlpha" operator="in" result="effect1_backgroundBlur_82_619"/>
<feBlend mode="normal" in="SourceGraphic" in2="effect1_backgroundBlur_82_619" result="shape"/>
</filter>
</defs>
</svg>
