<svg width="18" height="18" viewBox="0 0 18 18" fill="none" xmlns="http://www.w3.org/2000/svg">
<path fill-rule="evenodd" clip-rule="evenodd" d="M8.16667 0.666657C6.96865 0.666786 5.78809 0.953907 4.72382 1.50398C3.65955 2.05406 2.74254 2.85109 2.04956 3.82834C1.35657 4.80559 0.907775 5.93464 0.740739 7.12096C0.573703 8.30727 0.693287 9.51635 1.08948 10.647C1.48567 11.7776 2.14695 12.7968 3.01795 13.6194C3.88894 14.442 4.94432 15.0439 6.09573 15.3748C7.24713 15.7058 8.46106 15.7561 9.6359 15.5215C10.8107 15.2869 11.9123 14.7744 12.8483 14.0267L15.9108 17.0892C16.068 17.241 16.2785 17.325 16.497 17.3231C16.7155 17.3212 16.9245 17.2335 17.079 17.079C17.2335 16.9245 17.3212 16.7155 17.3231 16.497C17.325 16.2785 17.241 16.068 17.0892 15.9108L14.0267 12.8483C14.9083 11.7449 15.4605 10.4149 15.6196 9.01147C15.7787 7.60804 15.5383 6.18821 14.926 4.9154C14.3137 3.6426 13.3544 2.56856 12.1586 1.8169C10.9628 1.06525 9.57909 0.666534 8.16667 0.666657ZM3.16667 8.16666C3.16667 7.51005 3.296 6.85987 3.54727 6.25324C3.79855 5.64661 4.16684 5.09542 4.63114 4.63112C5.09543 4.16683 5.64662 3.79853 6.25325 3.54726C6.85988 3.29599 7.51006 3.16666 8.16667 3.16666C8.82328 3.16666 9.47346 3.29599 10.0801 3.54726C10.6867 3.79853 11.2379 4.16683 11.7022 4.63112C12.1665 5.09542 12.5348 5.64661 12.7861 6.25324C13.0373 6.85987 13.1667 7.51005 13.1667 8.16666C13.1667 9.49274 12.6399 10.7645 11.7022 11.7022C10.7645 12.6399 9.49275 13.1667 8.16667 13.1667C6.84059 13.1667 5.56882 12.6399 4.63114 11.7022C3.69345 10.7645 3.16667 9.49274 3.16667 8.16666Z" fill="white"/>
</svg>
